<?xml version="1.0" encoding="UTF-8" standalone="no"?>
<!DOCTYPE svg PUBLIC "-//W3C//DTD SVG 1.1//EN" "http://www.w3.org/Graphics/SVG/1.1/DTD/svg11.dtd">
<svg width="100%" height="100%" viewBox="0 0 640 640" version="1.1" xmlns="http://www.w3.org/2000/svg" xmlns:xlink="http://www.w3.org/1999/xlink" xml:space="preserve" style="fill-rule:evenodd;clip-rule:evenodd;stroke-linecap:round;stroke-linejoin:round;stroke-miterlimit:1.41421;">
    <path d="M326,46C244.776,46.05 203.389,95.555 202,156C198.274,318.193 296.467,339.541 319,338C323.376,337.701 405.03,349.87 432,219C434.719,205.806 466.38,45.913 326,46Z" style="fill:black;stroke-width:0.75px;stroke:black;"/>
    <path d="M225,326C220.071,325.431 155.785,350.841 141,362C126.215,373.159 92.015,489.78 101,542C104.501,562.35 249.363,596.716 326,593C397.541,589.531 517.356,565.552 534,552C550.644,538.448 518.775,377.104 498,364C473.727,348.689 426.899,327.453 414,327C404.78,326.676 384.409,363.001 320.426,366.172C264.849,368.927 236.77,327.359 225,326Z" style="fill:black;stroke-width:0.75px;stroke:black;"/>
</svg>
